<?xml version="1.0" encoding="utf-8"?>
<svg xmlns="http://www.w3.org/2000/svg" xmlns:xlink="http://www.w3.org/1999/xlink" style="margin: auto; background: none; display: block; shape-rendering: auto;" width="261px" height="261px" viewBox="0 0 100 100" preserveAspectRatio="xMidYMid">
<g transform="rotate(0 50 50)">
  <rect x="48" y="24.5" rx="2" ry="5.5" width="4" height="11" fill="#000000">
    <animate attributeName="opacity" values="1;0" keyTimes="0;1" dur="0.5952380952380952s" begin="-0.5494505494505495s" repeatCount="indefinite"></animate>
  </rect>
</g><g transform="rotate(27.692307692307693 50 50)">
  <rect x="48" y="24.5" rx="2" ry="5.5" width="4" height="11" fill="#000000">
    <animate attributeName="opacity" values="1;0" keyTimes="0;1" dur="0.5952380952380952s" begin="-0.5036630036630036s" repeatCount="indefinite"></animate>
  </rect>
</g><g transform="rotate(55.38461538461539 50 50)">
  <rect x="48" y="24.5" rx="2" ry="5.5" width="4" height="11" fill="#000000">
    <animate attributeName="opacity" values="1;0" keyTimes="0;1" dur="0.5952380952380952s" begin="-0.45787545787545786s" repeatCount="indefinite"></animate>
  </rect>
</g><g transform="rotate(83.07692307692308 50 50)">
  <rect x="48" y="24.5" rx="2" ry="5.5" width="4" height="11" fill="#000000">
    <animate attributeName="opacity" values="1;0" keyTimes="0;1" dur="0.5952380952380952s" begin="-0.41208791208791207s" repeatCount="indefinite"></animate>
  </rect>
</g><g transform="rotate(110.76923076923077 50 50)">
  <rect x="48" y="24.5" rx="2" ry="5.5" width="4" height="11" fill="#000000">
    <animate attributeName="opacity" values="1;0" keyTimes="0;1" dur="0.5952380952380952s" begin="-0.3663003663003663s" repeatCount="indefinite"></animate>
  </rect>
</g><g transform="rotate(138.46153846153845 50 50)">
  <rect x="48" y="24.5" rx="2" ry="5.5" width="4" height="11" fill="#000000">
    <animate attributeName="opacity" values="1;0" keyTimes="0;1" dur="0.5952380952380952s" begin="-0.32051282051282054s" repeatCount="indefinite"></animate>
  </rect>
</g><g transform="rotate(166.15384615384616 50 50)">
  <rect x="48" y="24.5" rx="2" ry="5.5" width="4" height="11" fill="#000000">
    <animate attributeName="opacity" values="1;0" keyTimes="0;1" dur="0.5952380952380952s" begin="-0.27472527472527475s" repeatCount="indefinite"></animate>
  </rect>
</g><g transform="rotate(193.84615384615384 50 50)">
  <rect x="48" y="24.5" rx="2" ry="5.5" width="4" height="11" fill="#000000">
    <animate attributeName="opacity" values="1;0" keyTimes="0;1" dur="0.5952380952380952s" begin="-0.22893772893772893s" repeatCount="indefinite"></animate>
  </rect>
</g><g transform="rotate(221.53846153846155 50 50)">
  <rect x="48" y="24.5" rx="2" ry="5.5" width="4" height="11" fill="#000000">
    <animate attributeName="opacity" values="1;0" keyTimes="0;1" dur="0.5952380952380952s" begin="-0.18315018315018314s" repeatCount="indefinite"></animate>
  </rect>
</g><g transform="rotate(249.23076923076923 50 50)">
  <rect x="48" y="24.5" rx="2" ry="5.5" width="4" height="11" fill="#000000">
    <animate attributeName="opacity" values="1;0" keyTimes="0;1" dur="0.5952380952380952s" begin="-0.13736263736263737s" repeatCount="indefinite"></animate>
  </rect>
</g><g transform="rotate(276.9230769230769 50 50)">
  <rect x="48" y="24.5" rx="2" ry="5.5" width="4" height="11" fill="#000000">
    <animate attributeName="opacity" values="1;0" keyTimes="0;1" dur="0.5952380952380952s" begin="-0.09157509157509157s" repeatCount="indefinite"></animate>
  </rect>
</g><g transform="rotate(304.61538461538464 50 50)">
  <rect x="48" y="24.5" rx="2" ry="5.5" width="4" height="11" fill="#000000">
    <animate attributeName="opacity" values="1;0" keyTimes="0;1" dur="0.5952380952380952s" begin="-0.045787545787545784s" repeatCount="indefinite"></animate>
  </rect>
</g><g transform="rotate(332.3076923076923 50 50)">
  <rect x="48" y="24.5" rx="2" ry="5.5" width="4" height="11" fill="#000000">
    <animate attributeName="opacity" values="1;0" keyTimes="0;1" dur="0.5952380952380952s" begin="0s" repeatCount="indefinite"></animate>
  </rect>
</g>
<!-- [ldio] generated by https://loading.io/ --></svg>